<?xml version="1.0" ?>
<!-- Uploaded to: SVG Repo, www.svgrepo.com, Generator: SVG Repo Mixer Tools -->
<svg width="800px" height="800px" viewBox="0 0 32 32" xmlns="http://www.w3.org/2000/svg">
<defs>
<style>.cls-1{fill:#04009a;}.cls-2{fill:#77acf1;}</style>
</defs>
<g data-name="33. Network" id="_33._Network">
<path class="cls-1" d="M29.83,17.16A15.24,15.24,0,0,0,30,15,15,15,0,1,0,15,30a15.24,15.24,0,0,0,2.16-.17A9,9,0,0,0,29.83,17.16ZM15.41,28a18.64,18.64,0,0,1-4.72-8h3.84A8.81,8.81,0,0,0,14,23a9,9,0,0,0,1.51,5Zm.11-10H10.27A17.52,17.52,0,0,1,10,15a18.59,18.59,0,0,1,.26-3h9.48A17.63,17.63,0,0,1,20,14.53,9.09,9.09,0,0,0,15.52,18ZM2,15a12.9,12.9,0,0,1,.36-3H8.24A21.18,21.18,0,0,0,8,15a21.18,21.18,0,0,0,.24,3H2.36A12.9,12.9,0,0,1,2,15Zm17.31-5H10.69A18.3,18.3,0,0,1,15,2.43,18.3,18.3,0,0,1,19.31,10ZM22,14.07A20.15,20.15,0,0,0,21.76,12h5.88A12.9,12.9,0,0,1,28,15c0,.17,0,.34,0,.51A9,9,0,0,0,23,14,9.26,9.26,0,0,0,22,14.07ZM27,10H21.36a19.9,19.9,0,0,0-3.9-7.76A13,13,0,0,1,27,10ZM12.54,2.24A19.9,19.9,0,0,0,8.64,10H3A13,13,0,0,1,12.54,2.24ZM3,20H8.63a20.34,20.34,0,0,0,3.91,7.76A13,13,0,0,1,3,20ZM23,30a7,7,0,1,1,7-7A7,7,0,0,1,23,30Z"/>
<path class="cls-2" d="M23,28a1,1,0,0,1-.55-.17l-1.87-1.25a6,6,0,0,1-2.08-2.35,4.68,4.68,0,0,1-.5-2.11A3.12,3.12,0,0,1,21.12,19a3.17,3.17,0,0,1,1.88.63A3.17,3.17,0,0,1,24.88,19,3.12,3.12,0,0,1,28,22.12a4.68,4.68,0,0,1-.5,2.11,6,6,0,0,1-2.08,2.35l-1.87,1.25A1,1,0,0,1,23,28Zm-1.88-7A1.12,1.12,0,0,0,20,22.12a2.74,2.74,0,0,0,.29,1.22,4.08,4.08,0,0,0,1.39,1.58L23,25.8l1.32-.88a4.08,4.08,0,0,0,1.39-1.58A2.74,2.74,0,0,0,26,22.12,1.12,1.12,0,0,0,24.88,21a1.1,1.1,0,0,0-.79.33l-.38.38a1,1,0,0,1-1.42,0l-.38-.38A1.1,1.1,0,0,0,21.12,21Z"/>
</g>
</svg>