<svg xmlns="http://www.w3.org/2000/svg" viewBox="0 0 170 35"><defs><style>.cls-1{fill:#459ac1;}.cls-2{fill:gray;}</style></defs><title>Asset 4</title><g id="Layer_2" data-name="Layer 2"><g id="Layer_1-2" data-name="Layer 1"><path class="cls-1" d="M21.47,17.11H17.05V6.63A6.26,6.26,0,0,0,14.91,4a4.4,4.4,0,0,0-2.4-.82c-1.38.07-2.08.69-2.08,1.87a2.91,2.91,0,0,0,2.08,2.78,8.17,8.17,0,0,0,2.72.63l-.38,3.19a13.69,13.69,0,0,1-3.26-.59A10.67,10.67,0,0,1,8.2,9.41,10.62,10.62,0,0,1,4.82,11.1a13.68,13.68,0,0,1-3.27.59L1.18,8.5a8.12,8.12,0,0,0,2.68-.63A2.91,2.91,0,0,0,6,5.09,1.79,1.79,0,0,0,5.3,3.6a2.39,2.39,0,0,0-1.4-.38H.65V0h3.4A7.39,7.39,0,0,1,8.2,1.18,7.6,7.6,0,0,1,12.51,0a10.31,10.31,0,0,1,4.54,1.13V0H22.6V3.22H21.47Z"/><path class="cls-1" d="M44.37,17.11H39.94V13.83a9.6,9.6,0,0,0-2.62-2.51,8.83,8.83,0,0,0-2.65-1.12,10.56,10.56,0,0,0-2.17-.27,6.2,6.2,0,0,0-2.7.47c-.62.31-.93.65-.93,1a1.09,1.09,0,0,0,.53.88,5.58,5.58,0,0,0,2.87.58c.38,0,.8,0,1.25,0L34,16c-.58,0-1.16.08-1.74.08a10.3,10.3,0,0,1-5.82-1.39,4,4,0,0,1-2-3.29,3.8,3.8,0,0,1,1.7-2.94,9.51,9.51,0,0,1,5-1.68,3.46,3.46,0,0,0-1.94-1.4,14.81,14.81,0,0,0-4.75-.55V3.22h-.52V0H45.5V3.22H44.37ZM39.94,8.72V3.22H32.65a5.65,5.65,0,0,1,3.06,3.85A13.72,13.72,0,0,1,39.94,8.72Z"/><path class="cls-1" d="M55.51,0V3.22H53.92a13.15,13.15,0,0,0-1.43,2.51,8.48,8.48,0,0,0-.76,3.62,5.76,5.76,0,0,0,1,3.47,6.49,6.49,0,0,0,2.19,1.95,9,9,0,0,0,2.3.88l-1.43,3a12,12,0,0,1-6.2-3.46,8.48,8.48,0,0,1-2.23-5.89,10.76,10.76,0,0,1,.83-4.29,18.59,18.59,0,0,1,.91-1.84H46.78V0Z"/><path class="cls-1" d="M77.28,17.11H72.86V13.37a4,4,0,0,0-.25-1,3.37,3.37,0,0,0-1.21-1.46,6.78,6.78,0,0,0-3-1.07q-1,2.5-4.91,3.68a21.52,21.52,0,0,1-6.16.69V11a17.46,17.46,0,0,0,4.27-.39,5.6,5.6,0,0,0,1.85-.76,2,2,0,0,0,.87-1.76,2.37,2.37,0,0,0-1-2.09A5.55,5.55,0,0,0,61,5.06a15,15,0,0,0-2.42-.22V3.22H56.8V0H78.41V3.22H77.28ZM72.86,7.67V3.22H65.71a5.61,5.61,0,0,1,2.8,3.35A13.39,13.39,0,0,1,72.86,7.67Z"/><path class="cls-1" d="M100.17,17.11h-4L80.22,11.88V8.8L95.75,3.41V3.22H79.69V0h21.62V3.22h-1.14Zm-12.69,2a3,3,0,0,1-1.76-.52A1.53,1.53,0,0,1,85,17.3,1.56,1.56,0,0,1,85.72,16a2.89,2.89,0,0,1,1.76-.53,2.81,2.81,0,0,1,1.74.53,1.58,1.58,0,0,1,.71,1.28,1.55,1.55,0,0,1-.71,1.27A2.94,2.94,0,0,1,87.48,19.09Zm8.27-5.64V7l-9.59,3.32Z"/><path class="cls-1" d="M123.07,17.11h-4.42v-4.9c-2-3.12-4.5-4.67-7.44-4.67a4.85,4.85,0,0,0-2.76.63,1.71,1.71,0,0,0-.91,1.35,1.71,1.71,0,0,0,.83,1.43,5.17,5.17,0,0,0,2.61.55c.38,0,.78,0,1.21-.06l.57,3.19c-.61.06-1.2.09-1.78.09a9.89,9.89,0,0,1-5.52-1.35,4.66,4.66,0,0,1-2.34-3.85,4,4,0,0,1,.93-2.47,6.63,6.63,0,0,1,2.74-2,11.33,11.33,0,0,1,4.42-.77,12.86,12.86,0,0,1,7.44,2.25V3.22H102.59V0H124.2V3.22h-1.13Z"/><path class="cls-1" d="M146,17.11h-4.42V7.67a7.73,7.73,0,0,0-1.93-2.55,7,7,0,0,0-5-1.9c-1.91,0-3.17.51-3.78,1.54a11.38,11.38,0,0,1,6.35,1.46,3.75,3.75,0,0,1,1.74,3.3q0,2.61-3.51,4a18.83,18.83,0,0,1-6.24,1.27l-.3-3.22c.43,0,1.08-.1,2-.23a12.22,12.22,0,0,0,2.5-.66q1.17-.46,1.17-1.17t-.42-1A7.59,7.59,0,0,0,130.55,8h-2.61L126,6.44l0-.66A4.79,4.79,0,0,1,127,3.25,7.15,7.15,0,0,1,129.74,1a10.74,10.74,0,0,1,4.89-1,12.26,12.26,0,0,1,6.92,2V0h5.55V3.22H146Z"/><path class="cls-1" d="M168.87,17.11h-4.05l-15.9-5.23V8.8l15.53-5.39V3.22H148.39V0H170V3.22h-1.13Zm-12.7,2a3,3,0,0,1-1.76-.52,1.52,1.52,0,0,1-.73-1.27,1.55,1.55,0,0,1,.73-1.28,2.91,2.91,0,0,1,1.76-.53,2.81,2.81,0,0,1,1.74.53,1.56,1.56,0,0,1,.72,1.28,1.53,1.53,0,0,1-.72,1.27A2.94,2.94,0,0,1,156.17,19.09Zm8.28-5.64V7l-9.6,3.32Z"/><path class="cls-2" d="M12.69,26.53H0l1-1.14H8.8A1.62,1.62,0,0,0,8.86,25q0-.84-1.59-.84c-.27,0-.68,0-1.22,0s-1,.05-1.22.05a4.7,4.7,0,0,1-2.18-.45,1.56,1.56,0,0,1-1-1.43,3.56,3.56,0,0,1,.09-.66l.8.13v.19c0,.51.78.76,2.32.76.25,0,.62,0,1.11,0s.85,0,1.1,0a3.67,3.67,0,0,1,2.49.79,3,3,0,0,1,1,1.88h2.76ZM11.55,35a14.78,14.78,0,0,0-7.76-3.17L2.58,30.19a16,16,0,0,0,2.14.18,9.38,9.38,0,0,0,2.59-.31c1-.3,1.55-.78,1.55-1.44s-.48-1-1.43-1a2.45,2.45,0,0,0-.43,0,1.17,1.17,0,0,1,.18.57,1.08,1.08,0,0,1-.64.94,2.81,2.81,0,0,1-1.44.37,1.93,1.93,0,0,1-1.21-.39,1.13,1.13,0,0,1-.5-.89c0-.51.41-.91,1.24-1.22a6.14,6.14,0,0,1,2.14-.38,5.78,5.78,0,0,1,2.62.56,1.88,1.88,0,0,1,1.27,1.67c0,1.1-.91,2-2.73,2.65a36.94,36.94,0,0,1,4.62,3Z"/><path class="cls-2" d="M19.32,30.68A3.09,3.09,0,0,0,20.85,33l0-.13a.88.88,0,0,1,0-.29.85.85,0,0,1,.45-.73,2.11,2.11,0,0,1,2.12,0,.86.86,0,0,1,.44.74c0,.87-.66,1.31-2,1.31a4.44,4.44,0,0,1-3.21-1.19,3.44,3.44,0,0,1-1.14-2.57,4.46,4.46,0,0,1,1.39-3.1,5.33,5.33,0,0,1,3.76-1.69l2.12.87Q19.32,27.43,19.32,30.68Z"/><path class="cls-2" d="M33.3,26.48H32L32.2,33l-1.69.93V29.55c-.31-.54-.66-.82-1-.82-.16,0-.53.28-1.1.84-.32.33-.65.67-1,1a2.68,2.68,0,0,1-1.82,1,2.23,2.23,0,0,1-1.73-.75,3,3,0,0,1-.73-1.45l1-.56q.3,1.11.84,1.11a1.35,1.35,0,0,0,1-.55,1.49,1.49,0,0,0,.44-.91,1,1,0,0,0-.76-1L24,27a4.33,4.33,0,0,1-1.14-.56H21.26l1-1.12h12Zm-2.79,0H26.92a3.25,3.25,0,0,1,.79,1.19A4.24,4.24,0,0,1,29,27.4a3.52,3.52,0,0,1,1.52.63Z"/><path class="cls-2" d="M42.43,26.48H41.25V33l-1.57.88c-1.1-2.41-2.75-3.78-4.93-4.1l-1.19-1a22.07,22.07,0,0,1,6-2.09v-.24H31.79l1-1.12H43.34Zm-2.87,1.87c-.82.25-1.66.53-2.53.84a8.36,8.36,0,0,1,2.53,2.22Z"/><path class="cls-2" d="M46.35,26.48H44.76l.18,6.57-1.8.74V28.38c0-1.2-.74-1.83-2.26-1.9l.94-1.12a2.07,2.07,0,0,1,2,1.34V24.62c.54.24,1.1.48,1.66.74h1.78Z"/><path class="cls-2" d="M60.8,33.92q-.79-2-1.89-2a6.19,6.19,0,0,0-1.56.3,6.15,6.15,0,0,1-4.8-.43,2.41,2.41,0,0,1-1.39-2.19,5.71,5.71,0,0,1,.43-1.78l1.8-.39a3.9,3.9,0,0,0-.68,1.8q0,1.59,2.64,1.59c.24,0,.59,0,1,0s.81-.05,1.05-.05a7.05,7.05,0,0,1,3.31.75v-5a4,4,0,0,0-.94-.12,2.73,2.73,0,0,0-2.37,1c.8.26,1.19.64,1.19,1.13a1,1,0,0,1-.64.85,2.79,2.79,0,0,1-1.32.3,2.2,2.2,0,0,1-1.4-.4,1.27,1.27,0,0,1-.52-1.06c0-.9.65-1.63,2-2.2a9.14,9.14,0,0,1,3.65-.72,3.35,3.35,0,0,1,1.41.27c.46.21.7.5.7.88v6.52Z"/><path class="cls-2" d="M75.15,26.5H74V33l-1.64.95V29.56a2.56,2.56,0,0,0-.85-1.49l-2.31,2.65L67,30.42l1.09-1.09a1,1,0,0,0-1-.67,2.48,2.48,0,0,0-1.3.5c-.9-.38-1.36-.72-1.36-1a2.52,2.52,0,0,1,1.17-2,4.18,4.18,0,0,1,2.61-.9,6.14,6.14,0,0,1,4.33,2q0-1.16,0-2.73c.26.22.61.48,1,.79a1.77,1.77,0,0,0,.64.05h1.92Zm-6.53,0a2.7,2.7,0,0,0-1.69.92,2.66,2.66,0,0,1,1.28.2,1.75,1.75,0,0,1,.75.81l1.14-1.29A2.32,2.32,0,0,0,68.62,26.53Z"/></g></g></svg>