<svg xmlns="http://www.w3.org/2000/svg" viewBox="0 0 170.4 34.03"><defs><style>.cls-1{fill:#459ac1;}.cls-2{fill:gray;}</style></defs><title>Asset 5</title><g id="Layer_2" data-name="Layer 2"><g id="Layer_1-2" data-name="Layer 1"><path class="cls-1" d="M21.87,16.38H17.46v-10a6.14,6.14,0,0,0-2.13-2.48,4.52,4.52,0,0,0-2.4-.79c-1.38.07-2.07.67-2.07,1.79a2.78,2.78,0,0,0,2.07,2.66,8.38,8.38,0,0,0,2.72.61l-.38,3A14,14,0,0,1,12,10.63,11.05,11.05,0,0,1,8.64,9a11.1,11.1,0,0,1-3.38,1.62A13.93,13.93,0,0,1,2,11.19l-.37-3A8.27,8.27,0,0,0,4.3,7.53,2.78,2.78,0,0,0,6.41,4.87a1.64,1.64,0,0,0-.68-1.42,2.33,2.33,0,0,0-1.39-.37H1.1V0H4.49A7.71,7.71,0,0,1,8.64,1.13,7.84,7.84,0,0,1,12.93,0a10.58,10.58,0,0,1,4.53,1.08V0H23V3.08H21.87Z"/><path class="cls-1" d="M44.71,16.38H40.3V13.25a9.27,9.27,0,0,0-2.62-2.41A8.73,8.73,0,0,0,35,9.77a10.46,10.46,0,0,0-2.16-.26,6.57,6.57,0,0,0-2.7.44c-.61.3-.92.63-.92,1a1,1,0,0,0,.53.84,5.76,5.76,0,0,0,2.86.55c.38,0,.79,0,1.24-.05l.49,3.06c-.57.05-1.15.08-1.73.08a10.64,10.64,0,0,1-5.8-1.33,3.79,3.79,0,0,1-2-3.15,3.61,3.61,0,0,1,1.7-2.82,9.71,9.71,0,0,1,5-1.61,3.41,3.41,0,0,0-1.94-1.34,15.39,15.39,0,0,0-4.73-.53V3.08h-.53V0H45.85V3.08H44.71Zm-4.41-8V3.08H33a5.48,5.48,0,0,1,3,3.69A13.79,13.79,0,0,1,40.3,8.35Z"/><path class="cls-1" d="M55.84,0V3.08H54.25a12.82,12.82,0,0,0-1.43,2.41A7.93,7.93,0,0,0,52.07,9,5.32,5.32,0,0,0,53,12.27a6.34,6.34,0,0,0,2.19,1.87,9,9,0,0,0,2.3.84l-1.44,2.93a12.13,12.13,0,0,1-6.18-3.32A8,8,0,0,1,47.66,9a9.88,9.88,0,0,1,.82-4.1c.31-.67.61-1.26.91-1.77H47.13V0Z"/><path class="cls-1" d="M77.89,16.38H73.48v-10a6.14,6.14,0,0,0-2.13-2.48A4.51,4.51,0,0,0,69,3.08c-1.39.07-2.08.67-2.08,1.79A2.78,2.78,0,0,0,69,7.53a8.26,8.26,0,0,0,2.71.61l-.38,3A14,14,0,0,1,68,10.63,11.05,11.05,0,0,1,64.66,9a11.1,11.1,0,0,1-3.38,1.62,13.93,13.93,0,0,1-3.26.56l-.37-3a8.27,8.27,0,0,0,2.67-.61,2.78,2.78,0,0,0,2.11-2.66,1.66,1.66,0,0,0-.67-1.42,2.39,2.39,0,0,0-1.4-.37H57.12V0h3.39a7.71,7.71,0,0,1,4.15,1.13A7.85,7.85,0,0,1,69,0a10.57,10.57,0,0,1,4.52,1.08V0H79V3.08H77.89Z"/><path class="cls-1" d="M100.74,16.38h-4l-15.87-5v-3L96.32,3.27V3.08h-16V0h21.57V3.08h-1.13Zm-12.67,1.9a3,3,0,0,1-1.75-.51,1.44,1.44,0,0,1-.74-1.21,1.48,1.48,0,0,1,.74-1.22,3,3,0,0,1,1.75-.51,2.9,2.9,0,0,1,1.73.51,1.48,1.48,0,0,1,.72,1.22,1.44,1.44,0,0,1-.72,1.21A2.9,2.9,0,0,1,88.07,18.28Zm8.25-5.4V6.69L86.75,9.88Z"/><path class="cls-1" d="M123.58,16.38h-4.41V11.69q-3-4.47-7.43-4.47a5.05,5.05,0,0,0-2.75.6,1.67,1.67,0,0,0-.9,1.29,1.6,1.6,0,0,0,.83,1.37,5.23,5.23,0,0,0,2.6.53c.37,0,.78,0,1.2-.06l.57,3.06c-.6.05-1.19.08-1.77.08A10.24,10.24,0,0,1,106,12.8a4.45,4.45,0,0,1-2.33-3.69,3.71,3.71,0,0,1,.92-2.36,6.64,6.64,0,0,1,2.73-1.88,11.75,11.75,0,0,1,4.41-.74,13.21,13.21,0,0,1,7.43,2.16V3.08h-16V0h21.56V3.08h-1.13Z"/><path class="cls-1" d="M146.43,16.38H142v-9a7.37,7.37,0,0,0-1.93-2.45,7.19,7.19,0,0,0-5-1.82c-1.91,0-3.17.49-3.77,1.48A11.84,11.84,0,0,1,137.68,6a3.58,3.58,0,0,1,1.74,3.16q0,2.5-3.51,3.85a19.54,19.54,0,0,1-6.22,1.21l-.3-3.08c.42,0,1.08-.1,2-.23a12.27,12.27,0,0,0,2.49-.63c.78-.29,1.16-.66,1.16-1.12s-.13-.81-.41-.95A8,8,0,0,0,131,7.64h-2.59l-1.93-1.5,0-.63a4.47,4.47,0,0,1,.92-2.42A7.11,7.11,0,0,1,130.23.92,11.19,11.19,0,0,1,135.12,0,12.55,12.55,0,0,1,142,1.87V0h5.54V3.08h-1.13Z"/><path class="cls-1" d="M169.27,16.38h-4l-15.87-5v-3l15.49-5.16V3.08h-16V0H170.4V3.08h-1.13Zm-12.66,1.9a3,3,0,0,1-1.76-.51,1.43,1.43,0,0,1-.73-1.21,1.47,1.47,0,0,1,.73-1.22,3,3,0,0,1,1.76-.51,2.9,2.9,0,0,1,1.73.51,1.48,1.48,0,0,1,.72,1.22,1.44,1.44,0,0,1-.72,1.21A2.9,2.9,0,0,1,156.61,18.28Zm8.25-5.4V6.69l-9.57,3.19Z"/><path class="cls-2" d="M12.68,26.35H0l1-1H8.8a1.74,1.74,0,0,0,0-.34c0-.51-.53-.77-1.58-.77-.28,0-.68,0-1.23.05s-.94,0-1.21,0a5.11,5.11,0,0,1-2.18-.41,1.43,1.43,0,0,1-1-1.3A2.91,2.91,0,0,1,1.78,22l.8.11v.18c0,.45.77.68,2.32.68.25,0,.61,0,1.1,0s.86,0,1.11,0a4,4,0,0,1,2.49.72,2.7,2.7,0,0,1,1,1.7h2.76ZM11.54,34a15.57,15.57,0,0,0-7.75-2.87L2.58,29.67a17,17,0,0,0,2.13.16,10.26,10.26,0,0,0,2.59-.28c1-.26,1.55-.7,1.55-1.3s-.47-.91-1.42-.91a2.37,2.37,0,0,0-.43,0,.87.87,0,0,1-.46,1.37,3.13,3.13,0,0,1-1.45.33,2.09,2.09,0,0,1-1.2-.35,1,1,0,0,1-.51-.81c0-.46.42-.83,1.25-1.11a6.9,6.9,0,0,1,2.14-.34A6.14,6.14,0,0,1,9.38,27c.85.37,1.27.88,1.27,1.51q0,1.5-2.73,2.4a37.3,37.3,0,0,1,4.62,2.73Z"/><path class="cls-2" d="M15.72,30.35v-.82h5.77v.82Z"/><path class="cls-2" d="M28.18,30.12c0,.72.51,1.42,1.53,2.11v-.12a.69.69,0,0,1-.06-.26.77.77,0,0,1,.46-.66,2,2,0,0,1,1.06-.26,2,2,0,0,1,1.05.26.74.74,0,0,1,.44.66c0,.8-.66,1.19-2,1.19A4.69,4.69,0,0,1,27.47,32a3,3,0,0,1-1.14-2.33,3.86,3.86,0,0,1,1.39-2.81,5.51,5.51,0,0,1,3.76-1.52l2.12.78C30,26.81,28.18,28.15,28.18,30.12Z"/><path class="cls-2" d="M42.16,26.31H40.84l.22,5.86L39.37,33V29.09a1.3,1.3,0,0,0-1-.74c-.16,0-.53.25-1.1.75-.32.31-.65.61-1,.91a2.84,2.84,0,0,1-1.82.86,2.33,2.33,0,0,1-1.72-.68A2.63,2.63,0,0,1,32,28.87l1-.51c.2.68.48,1,.83,1a1.38,1.38,0,0,0,1-.51,1.26,1.26,0,0,0,.44-.82c0-.43-.25-.72-.76-.9l-1.57-.34a4.23,4.23,0,0,1-1.14-.5H30.12l1-1h12Zm-2.79,0H35.79a2.89,2.89,0,0,1,.78,1.08,4.42,4.42,0,0,1,1.28-.25,3.65,3.65,0,0,1,1.52.58Z"/><path class="cls-2" d="M51.28,26.31H50.1v5.94l-1.56.8a6.29,6.29,0,0,0-4.94-3.71l-1.19-.92a23.89,23.89,0,0,1,6.06-1.89v-.22H40.65l1-1H52.19ZM48.41,28c-.82.23-1.66.48-2.53.76a8.25,8.25,0,0,1,2.53,2Z"/><path class="cls-2" d="M55.2,26.31H53.61l.18,5.95-1.8.68V28c0-1.09-.74-1.67-2.26-1.73l.94-1a2.07,2.07,0,0,1,2,1.21V24.63c.54.21,1.1.43,1.65.67h1.79Z"/><path class="cls-2" d="M69.64,33.05c-.53-1.21-1.16-1.82-1.89-1.82a6.66,6.66,0,0,0-1.55.27,7.26,7.26,0,0,1-1.56.26,7,7,0,0,1-3.25-.65,2.17,2.17,0,0,1-1.38-2,4.92,4.92,0,0,1,.42-1.61l1.8-.35a3.3,3.3,0,0,0-.68,1.62q0,1.44,2.64,1.44c.24,0,.59,0,1,0s.81-.05,1.05-.05a7.78,7.78,0,0,1,3.32.68V26.27a4.65,4.65,0,0,0-1-.1,2.84,2.84,0,0,0-2.37.93c.8.23,1.2.58,1.2,1s-.22.57-.65.76a3,3,0,0,1-1.31.27,2.41,2.41,0,0,1-1.41-.36,1.14,1.14,0,0,1-.52-1c0-.81.66-1.48,2-2a9.87,9.87,0,0,1,3.65-.66,3.52,3.52,0,0,1,1.41.25c.46.19.69.45.69.8v5.91Z"/><path class="cls-2" d="M84,26.33H82.86v5.88l-1.64.86v-4c0-.34-.29-.79-.86-1.35l-2.31,2.4-2.23-.27,1.09-1c-.13-.4-.48-.61-1-.61a2.59,2.59,0,0,0-1.31.46q-1.35-.51-1.35-.93A2.26,2.26,0,0,1,74.37,26,4.49,4.49,0,0,1,77,25.21,6.39,6.39,0,0,1,81.3,27c0-.7,0-1.53,0-2.48.27.2.61.44,1,.71a1.77,1.77,0,0,0,.64.05H84.9Zm-6.52,0a2.75,2.75,0,0,0-1.69.84,2.87,2.87,0,0,1,1.28.18,1.67,1.67,0,0,1,.75.74l1.14-1.18A2.53,2.53,0,0,0,77.46,26.35Z"/></g></g></svg>