<?xml version="1.0" encoding="iso-8859-1"?>
<!-- Uploaded to: SVG Repo, www.svgrepo.com, Generator: SVG Repo Mixer Tools -->
<svg version="1.1" id="Layer_1" xmlns="http://www.w3.org/2000/svg" xmlns:xlink="http://www.w3.org/1999/xlink" 
	 viewBox="0 0 512 512" xml:space="preserve">
<rect x="73.143" y="414.476" style="fill:#88888F;" width="73.143" height="85.333"/>
<rect x="109.714" y="414.476" style="fill:#797781;" width="36.571" height="85.333"/>
<rect x="365.714" y="414.476" style="fill:#88888F;" width="73.143" height="85.333"/>
<rect x="402.286" y="414.476" style="fill:#797781;" width="36.571" height="85.333"/>
<path style="fill:#F8E99B;" d="M438.857,85.333c0-40.396-32.747-73.143-73.143-73.143H146.286
	c-40.396,0-73.143,32.747-73.143,73.143V256h365.714V85.333z"/>
<path style="fill:#F6E27D;" d="M438.857,85.333c0-40.396-32.747-73.143-73.143-73.143H256v73.143H438.857z"/>
<rect x="73.143" y="85.333" style="fill:#D1E5F5;" width="365.714" height="170.667"/>
<rect x="256" y="85.333" style="fill:#B4D8F1;" width="182.857" height="170.667"/>
<path style="fill:#F8E99B;" d="M463.238,304.762c0-40.396-32.747-73.143-73.143-73.143h-268.19
	c-40.396,0-73.143,32.747-73.143,73.143v121.905h414.476V304.762z"/>
<g>
	<path style="fill:#F6E27D;" d="M463.238,304.762c0-40.396-32.747-73.143-73.143-73.143H256v195.048h207.238V304.762z"/>
	<rect x="182.857" y="231.619" style="fill:#F6E27D;" width="146.286" height="195.048"/>
</g>
<rect x="256" y="231.619" style="fill:#F5DC60;" width="73.143" height="195.048"/>
<g>
	<path style="fill:#FFFFFF;" d="M396.19,335.238c-13.444,0-24.381-10.937-24.381-24.381c0-13.444,10.937-24.381,24.381-24.381
		s24.381,10.937,24.381,24.381C420.571,324.301,409.634,335.238,396.19,335.238z"/>
	<path style="fill:#FFFFFF;" d="M115.81,335.238c-13.444,0-24.381-10.937-24.381-24.381c0-13.444,10.937-24.381,24.381-24.381
		s24.381,10.937,24.381,24.381C140.19,324.301,129.253,335.238,115.81,335.238z"/>
</g>
<rect x="475.429" y="109.714" style="fill:#F6E27D;" width="36.571" height="73.143"/>
<rect y="109.714" style="fill:#F8E99B;" width="36.571" height="73.143"/>
<rect x="231.619" y="286.476" style="fill:#88888F;" width="48.762" height="36.571"/>
<rect x="256" y="286.476" style="fill:#797781;" width="24.381" height="36.571"/>
</svg>